# xmcd CD database file generated by Grip 3.0.5
# 
# Track frame offsets:
#       150
#       14335
#       30432
# 
# Disc length: 659 seconds
# 
# Revision: 1
# Processed by: cddbd v1.5.1PL0 Copyright (c) Steve Scherf et al.
# Submitted via: Grip 3.0.5
# 
DISCID=16029103
DTITLE=Jeremy Jackson - I'm Gonna Miss You (Radio Edit.)
DYEAR=1995
DGENRE=Other
TTITLE0=I'm Gonna Miss You
TTITLE1=Gettin' Even With Dad
TTITLE2=I'm Gonna Miss You (Album Version)
EXTD=
EXTT0=
EXTT1=
EXTT2=
PLAYORDER=
